# xmcd
#
# Track frame offsets:
# 150
# 27787
# 43655
# 61240
# 81305
# 108388
# 130835
# 150196
# 168122
# 182562
# 198792
# 223033
#
# Disc length: 3234 seconds
#
# Revision: 1
# Processed by: cddbd v1.5.2PL0 Copyright (c) Steve Scherf et al.
# Submitted via: CedeCatalogueitor 2.6.0.6 http://personales.ya.com/cdcatalogueitor
#
DISCID=910ca00c
DTITLE=Kissogram - The Secret Life Of Captain Ferber
DYEAR=1900
DGENRE=
TTITLE0=Forsaken People Come To Me
TTITLE1=My Friend Is A Seahorse
TTITLE2=Owda Awda
TTITLE3=Cool Kids Cant' Die
TTITLE4=Sad Boy 
TTITLE5=Bloody Collar Shadow Man
TTITLE6=Falling Star
TTITLE7=Cheyenne
TTITLE8=Girl In My Shower
TTITLE9=Teenage Dance
TTITLE10=I Wanna Be My Man
TTITLE11=Winter Eyes
EXTD=
EXTT0=
EXTT1=
EXTT2=
EXTT3=
EXTT4=
EXTT5=
EXTT6=
EXTT7=
EXTT8=
EXTT9=
EXTT10=
EXTT11=
PLAYORDER=
